<?xml version="1.0" encoding="utf-8"?>
<!-- Generator: Adobe Illustrator 18.1.1, SVG Export Plug-In . SVG Version: 6.00 Build 0)  -->
<svg version="1.1" xmlns="http://www.w3.org/2000/svg" xmlns:xlink="http://www.w3.org/1999/xlink" x="0px" y="0px"
	 viewBox="0 0 1000 1000" enable-background="new 0 0 1000 1000" xml:space="preserve">
<g id="Layer_2" display="none">
	<path display="inline" d="M791.9,591C755.8,716.5,640,808.5,503.1,808.5c-77,0-147.3-29.1-200.6-76.9c2.2-2.9,4.2-5.7,6.1-8.4
		c9-12.6,15-20.9,32.8-26c17.8-5.1,27.3-1.2,41.6,4.7c16.7,6.9,37.6,15.5,69.7,6.2c32.2-9.2,45.3-27.5,55.8-42.3
		c9-12.6,15-20.9,32.8-26c17.8-5.1,27.3-1.2,41.6,4.7c16.8,6.9,37.6,15.5,69.7,6.3c32.2-9.2,45.3-27.6,55.8-42.3
		c9-12.6,15-20.9,32.8-26c17.8-5.1,27.3-1.2,41.6,4.7C785.7,588.5,788.7,589.8,791.9,591z"/>
</g>
<g id="Layer_1">
	<circle fill="#4EDCD8" cx="500.3" cy="504.1" r="290.8"/>
	<path d="M500.8,881.8c-51,0-100.4-10-147-29.7c-45-19-85.3-46.2-120-80.9c-34.7-34.7-61.9-75-80.9-120c-19.7-46.6-29.7-96-29.7-147
		c0-51,10-100.4,29.7-147c19-45,46.2-85.3,80.9-120s75-61.9,120-80.9c46.6-19.7,96-29.7,147-29.7s100.4,10,147,29.7
		c45,19,85.3,46.2,120,80.9c34.7,34.7,61.9,75,80.9,120c19.7,46.6,29.7,96,29.7,147c0,51-10,100.4-29.7,147
		c-19,45-46.2,85.3-80.9,120c-34.7,34.7-75,61.9-120,80.9C601.2,871.8,551.8,881.8,500.8,881.8z M500.8,166.7
		c-186.1,0-337.5,151.4-337.5,337.5c0,186.1,151.4,337.5,337.5,337.5c186.1,0,337.5-151.4,337.5-337.5
		C838.3,318.1,686.9,166.7,500.8,166.7z"/>
	<path d="M98.1,685.1c-11.8,0-22.6-0.5-32.2-1.4c-13.8-1.4-55.8-5.5-64.4-35.1c-8.6-29.6,24.8-55.5,35.8-64
		c22.6-17.6,56.1-37,99.6-57.9l17.3,36.1C64,606.2,45,630.3,41.2,637.2c6.9,3.8,35.8,14.1,135.3,2.6
		c93.8-10.8,215.2-36.9,341.8-73.4c127.1-36.7,244-79.5,329.2-120.5c89.6-43.1,108.4-67.1,112.3-73.9c-6.9-3.8-35.6-14-134.2-2.7
		l-4.5-39.8c47.6-5.4,86-6.7,114.4-3.9c13.7,1.4,55.5,5.5,64,35c8.5,29.5-24.6,55.3-35.5,63.8c-22.5,17.5-55.8,36.9-99,57.7
		c-87.1,41.9-206.2,85.5-335.4,122.8c-128.7,37.1-252.4,63.7-348.3,74.7C149.3,683.3,121.5,685.1,98.1,685.1z"/>
</g>
</svg>
